<?xml version='1.0' encoding='utf-8'?>
<svg xmlns="http://www.w3.org/2000/svg" width="1920" height="1080" viewBox="0 0 1920 1080" data-theme="light">
  <style>
        @font-face {
            font-family: 'Inter';
            src: url('assets/fonts/Inter-Regular.ttf') format('truetype');
            font-weight: 400;
            font-style: normal;
            font-display: swap;
        }
        @font-face {
            font-family: 'Inter';
            src: url('assets/fonts/Inter-Bold.ttf') format('truetype');
            font-weight: 600;
            font-style: normal;
            font-display: swap;
        }
        @font-face {
            font-family: 'Inter';
            src: url('assets/fonts/Inter-Bold.ttf') format('truetype');
            font-weight: 800;
            font-style: normal;
            font-display: swap;
        }
        
:root {
    --background: #f8fafc;
    --panel: #ffffff;
    --primary-text: #0f172a;
    --muted-text: #64748b;
    --inverse-text: #ffffff;
    --border: #e2e8f0;
    --shadow-color: #000000;
    --icon-pad-bg: #1e293b;
    --art-glow: #0891b2;
    --art-glow-opacity: 0.10;
    --art-sheen: #ffffff;
    --art-sheen-opacity: 0.34;
    --art-shadow: #0f172a;
    --art-shadow-opacity: 0.14;
    --art-muted-line: #94a3b8;
    --art-panel-tint: #f1f5f9;
    --font-family: 'Inter', 'Segoe UI', 'Kalam', Roboto, Helvetica, Arial, sans-serif;
    --radius-xl: 16px;
    --font-family-headline: 'Inter', 'Segoe UI', 'Kalam', Roboto, Helvetica, Arial, sans-serif;
    --font-family-body: 'Inter', 'Segoe UI', 'Kalam', Roboto, Helvetica, Arial, sans-serif;
    --font-heading: 'Inter', 'Segoe UI', 'Kalam', Roboto, Helvetica, Arial, sans-serif;
    --font-body: 'Inter', 'Segoe UI', 'Kalam', Roboto, Helvetica, Arial, sans-serif;
    --font-size-h1: 56px;
    --font-size-h2: 40px;
    --font-size-h3: 28px;
    --font-size-body: 24px;
    --font-size-caption: 18px;
    --secondary-text: var(--muted-text);
    --panel-border: var(--border);
    --font-weight-normal: 400;
    --font-weight-medium: 500;
    --font-weight-semibold: 600;
    --font-weight-bold: 700;
    --spacing-gutter-pct: 0.07;
    --spacing-top-pct: 0.15;
    --spacing-bottom-pct: 0.07;
    --spacing-title-y-pct: 0.055;
    --accent-1: #2563eb;
    --accent-2: #16a34a;
    --accent-3: #ea580c;
    --accent-4: #7c3aed;
    --accent-5: #0284c7;
    --accent-6: #475569;
}
:root[data-theme="dark"] {
    --background: #0f172a;
    --panel: #1e293b;
    --primary-text: #f1f5f9;
    --muted-text: #94a3b8;
    --inverse-text: #0f172a;
    --border: #334155;
    --shadow-color: #000000;
    --icon-pad-bg: #1e293b;
    --art-glow: #7dd3fc;
    --art-glow-opacity: 0.18;
    --art-sheen: #ffffff;
    --art-sheen-opacity: 0.18;
    --art-shadow: #000000;
    --art-shadow-opacity: 0.28;
    --art-muted-line: #64748b;
    --art-panel-tint: #1e293b;
    --accent-1: #60a5fa;
    --accent-2: #4ade80;
    --accent-3: #f97316;
    --accent-4: #a78bfa;
    --accent-5: #38bdf8;
    --accent-6: #94a3b8;
}
:root[data-theme="light"] {
    --background: #f8fafc;
    --panel: #ffffff;
    --primary-text: #0f172a;
    --muted-text: #64748b;
    --inverse-text: #ffffff;
    --border: #e2e8f0;
    --shadow-color: #000000;
    --icon-pad-bg: #1e293b;
    --art-glow: #0891b2;
    --art-glow-opacity: 0.10;
    --art-sheen: #ffffff;
    --art-sheen-opacity: 0.34;
    --art-shadow: #0f172a;
    --art-shadow-opacity: 0.14;
    --art-muted-line: #94a3b8;
    --art-panel-tint: #f1f5f9;
    --accent-1: #2563eb;
    --accent-2: #16a34a;
    --accent-3: #ea580c;
    --accent-4: #7c3aed;
    --accent-5: #0284c7;
    --accent-6: #475569;
}</style>
  <rect x="0" y="0" width="1.92E+3" height="1.08E+3" fill="#252a34" stroke="none" id="programmatic_background"/>
  <line id="HEADER_DECOR" x1="960.0" x2="1080.0" y1="85.0" y2="85.0" stroke="var(--accent-1)" stroke-width="6" stroke-linecap="round"/>
  <defs>
    <pattern id="svg770b3f14-napkin-hatch" patternUnits="userSpaceOnUse" width="12" height="12">
      <path d="M -3 12 L 12 -3 M 0 15 L 15 0" fill="none" stroke="var(--primary-text)" stroke-width="1" stroke-opacity="0.05"/>
    </pattern>
    <filter id="svg770b3f14-shadow" x="-30%" y="-30%" width="160%" height="160%">
      <feDropShadow dx="0" dy="2" stdDeviation="3" flood-color="#000000" flood-opacity="0.08"/>
      <feDropShadow dx="0" dy="6" stdDeviation="10" flood-color="#000000" flood-opacity="0.12"/>
    </filter>
    <marker id="svg770b3f14-arrowhead" markerWidth="10" markerHeight="10" refX="9" refY="5" orient="auto">
      <path d="M 0 0 L 10 5 L 0 10 Z" fill="var(--accent-1)"/>
    </marker>
    <filter id="svg770b3f14-text-glow" x="-20%" y="-20%" width="140%" height="140%">
      <feDropShadow dx="0" dy="0" stdDeviation="2" flood-color="#000000" flood-opacity="0.4"/>
    </filter>
    <radialGradient id="svg770b3f14-universal-edge-vignette" cx="50%" cy="50%" r="72%">
      <stop offset="0%" stop-color="var(--background)" stop-opacity="0"/>
      <stop offset="72%" stop-color="var(--background)" stop-opacity="0.12"/>
      <stop offset="100%" stop-color="var(--primary-text)" stop-opacity="0.08"/>
    </radialGradient>
    <linearGradient id="svg770b3f14-universal-surface-sheen" x1="0%" y1="0%" x2="100%" y2="100%">
      <stop offset="0%" stop-color="var(--art-sheen)" stop-opacity="var(--art-sheen-opacity)"/>
      <stop offset="46%" stop-color="var(--art-sheen)" stop-opacity="0.035"/>
      <stop offset="100%" stop-color="var(--art-panel-tint)" stop-opacity="0.14"/>
    </linearGradient>
    <radialGradient id="svg770b3f14-universal-icon-aura" cx="50%" cy="42%" r="64%">
      <stop offset="0%" stop-color="var(--art-glow)" stop-opacity="var(--art-glow-opacity)"/>
      <stop offset="100%" stop-color="var(--background)" stop-opacity="0"/>
    </radialGradient>
    <linearGradient id="svg770b3f14-card-panel-sheen" x1="0%" y1="0%" x2="100%" y2="100%">
      <stop offset="0%" stop-color="var(--inverse-text)" stop-opacity="0.20"/>
      <stop offset="48%" stop-color="var(--inverse-text)" stop-opacity="0.04"/>
      <stop offset="100%" stop-color="var(--background)" stop-opacity="0.16"/>
    </linearGradient>
    <radialGradient id="svg770b3f14-card-icon-glow" cx="50%" cy="35%" r="62%">
      <stop offset="0%" stop-color="var(--inverse-text)" stop-opacity="0.22"/>
      <stop offset="100%" stop-color="var(--background)" stop-opacity="0"/>
    </radialGradient>
  </defs>
  <rect width="100%" height="100%" fill="var(--background)" id="CANVAS_BG"/>
  <rect width="100%" height="100%" fill="url(#svg770b3f14-napkin-hatch)"/>
  <rect id="UNIVERSAL_EDGE_VIGNETTE" width="100%" height="100%" fill="url(#svg770b3f14-universal-edge-vignette)" opacity="0.62"/>
  <text id="TITLE" x="960.0" y="59" font-size="48" font-weight="700" fill="#0f172a" text-anchor="middle" style="font-size: 60px; font-family: Inter, Segoe UI, Kalam, Roboto, Helvetica, Arial, sans-serif; font-weight: 700; letter-spacing:-1.2px;" data-final-font-size="60">
    <tspan x="960.0" dy="68.00px">Diverse Portfolio Anchors</tspan>
  </text>
  <rect id="TITLE_FRAME" x="134" y="25" width="1652" height="70" fill="none"/>
  <g id="DIAGRAM_MAIN">
    <rect id="ITEM_1_BG" x="485" y="170" width="480" height="410" rx="16" fill="var(--accent-3)" stroke="var(--accent-1)" stroke-width="2" filter="url(#svg770b3f14-shadow)" fill-opacity="1.0"/>
    <rect x="485" y="170" width="480" height="410" rx="16" fill="url(#svg770b3f14-card-panel-sheen)" opacity="0.88"/>
    <rect x="485" y="186" width="460" height="12" fill="var(--accent-1)"/>
    <rect id="ITEM_1_HEAD_FRAME" x="500" y="288" width="450" height="96" fill="none"/>
    <rect id="ITEM_1_BODY_FRAME" x="500" y="382" width="450" height="168" fill="none"/>
    <circle id="ITEM_1_PAD" cx="715" cy="231" r="55" fill="var(--icon-pad-bg)" stroke="var(--primary-text)" opacity="0.9" fill-opacity="0.9" stroke-width="2"/>
    <circle cx="715" cy="231" r="44" fill="none" stroke="var(--accent-1)" stroke-width="3" stroke-dasharray="6 4"/>
    <circle id="ITEM_1_BADGE" cx="715" cy="231" r="43" fill="var(--accent-1)" stroke="var(--background)" stroke-width="4" fill-opacity="0.35" opacity="0.85" stroke-opacity="0.75"/>
    <g id="ITEM_1_ICON" transform="translate(682, 198)" data-icon-size="66">
      <g transform="translate(-16.028571428571425,-25.221428571428568) scale(3.064285714285714)">
        <path d="M14 12H9.97817C9.36099 12 8.77838 12.2849 8.39946 12.7721L2.84259 19.9167C2.29649 20.6188 2 21.4829 2 22.3724V25C2 26.1046 2.89543 27 4 27H14.3192C14.3192 19.7083 15.1183 13.0875 14 12Z" fill="#E6E6E6"/>
        <path d="M14.8896 8.8678C14.8462 8.91078 14.8041 8.95507 14.7633 9.00062C14.2886 9.5313 14 10.2319 14 11V21.0904H30V10C30 9.63485 29.9021 9.29256 29.7312 8.99791C29.7054 8.95343 29.678 8.91003 29.6489 8.8678H14.8896Z" fill="#F92F60"/>
        <path d="M17 8C16.1115 8 15.3132 8.38625 14.7639 9H29.7324C29.3866 8.4022 28.7403 8 28 8H17ZM30 21H14V27H28C29.1046 27 30 26.1046 30 25V21Z" fill="#D3D3D3"/>
        <path d="M12 26.5C12 28.433 10.433 30 8.5 30C6.567 30 5 28.433 5 26.5C5 24.567 6.567 23 8.5 23C10.433 23 12 24.567 12 26.5ZM27 26.5C27 28.433 25.433 30 23.5 30C21.567 30 20 28.433 20 26.5C20 24.567 21.567 23 23.5 23C25.433 23 27 24.567 27 26.5Z" fill="#433B6B"/>
        <path d="M10 26.5C10 27.3284 9.32843 28 8.5 28C7.67157 28 7 27.3284 7 26.5C7 25.6716 7.67157 25 8.5 25C9.32843 25 10 25.6716 10 26.5ZM25 26.5C25 27.3284 24.3284 28 23.5 28C22.6716 28 22 27.3284 22 26.5C22 25.6716 22.6716 25 23.5 25C24.3284 25 25 25.6716 25 26.5Z" fill="#F4F4F4"/>
        <path d="M22 12C21.4477 12 21 12.4477 21 13V14H20C19.4477 14 19 14.4477 19 15C19 15.5523 19.4477 16 20 16H21V17C21 17.5523 21.4477 18 22 18C22.5523 18 23 17.5523 23 17V16H24C24.5523 16 25 15.5523 25 15C25 14.4477 24.5523 14 24 14H23V13C23 12.4477 22.5523 12 22 12Z" fill="#F4F4F4"/>
        <path d="M3 25L2 25V22.3724C2 21.9011 2.08326 21.4368 2.24282 21H3C3.55228 21 4 21.4477 4 22V24C4 24.5523 3.55228 25 3 25ZM29.5 22C28.6716 22 28 22.6716 28 23.5C28 24.3284 28.6716 25 29.5 25H30V22H29.5Z" fill="#FF822D"/>
        <path d="M4.33331 18H11C12.1045 18 13 17.1046 13 16V14C13 13.4477 12.5523 13 12 13H8.2222L4.33331 18Z" fill="#26C9FC"/>
        <path d="M10 12C10 11.4477 10.4477 11 11 11H13C13.5523 11 14 11.4477 14 12V12H10V12Z" fill="#D3D3D3"/>
        <path d="M11 11C11 10.4477 11.4477 10 12 10V10C12.5523 10 13 10.4477 13 11V11H11V11Z" fill="#F8312F"/>
      </g>
    </g>
    <text id="ITEM_1_HEAD" x="725.0" y="288.0" font-weight="700" font-size="26" fill="var(--primary-text)" text-anchor="middle" data-bg-id="ITEM_1_BG" fill-opacity="1.0" style="font-size: 30px; font-family: Inter, Segoe UI, Kalam, Roboto, Helvetica, Arial, sans-serif; font-weight: 700; letter-spacing:-0.4px;" data-final-font-size="30">
      <tspan x="725.0" dy="56.25px">Evergreen Themes</tspan>
    </text>
    <text id="ITEM_1_BODY" x="725.0" y="382.0" font-size="21" fill="var(--primary-text)" text-anchor="middle" data-bg-id="ITEM_1_BG" style="font-size: 26px; font-family: Inter, Segoe UI, Kalam, Roboto, Helvetica, Arial, sans-serif; font-weight: 400;" data-final-font-size="26">
      <tspan x="725.0" dy="42.44px">City and Technic provide stable</tspan>
      <tspan x="725.0" dy="29.90px">demand regardless of trends</tspan>
    </text>
    <rect id="ITEM_2_BG" x="975" y="170" width="480" height="410" rx="16" fill="var(--accent-4)" stroke="var(--accent-2)" stroke-width="2" filter="url(#svg770b3f14-shadow)" fill-opacity="1.0"/>
    <rect x="975" y="170" width="480" height="410" rx="16" fill="url(#svg770b3f14-card-panel-sheen)" opacity="0.88"/>
    <rect x="975" y="186" width="460" height="12" fill="var(--accent-2)"/>
    <rect id="ITEM_2_HEAD_FRAME" x="990" y="288" width="450" height="96" fill="none"/>
    <rect id="ITEM_2_BODY_FRAME" x="990" y="382" width="450" height="168" fill="none"/>
    <circle id="ITEM_2_PAD" cx="1205" cy="231" r="55" fill="var(--icon-pad-bg)" stroke="var(--primary-text)" opacity="0.9" fill-opacity="0.9" stroke-width="2"/>
    <circle cx="1205" cy="231" r="44" fill="none" stroke="var(--accent-2)" stroke-width="3" stroke-dasharray="6 4"/>
    <circle id="ITEM_2_BADGE" cx="1205" cy="231" r="43" fill="var(--accent-2)" stroke="var(--background)" stroke-width="4" fill-opacity="0.35" opacity="0.85" stroke-opacity="0.75"/>
    <g id="ITEM_2_ICON" transform="translate(1172, 198)" data-icon-size="66">
      <g transform="translate(-17.844444444444434,-17.844444444444434) scale(4.2370370370370365)" vector-effect="non-scaling-stroke" stroke-width="2.50" stroke-linecap="round" stroke-linejoin="round" stroke-opacity="1.0">
        <polyline points="14.5 17.5 3 6 3 3 6 3 17.5 14.5" vector-effect="non-scaling-stroke" fill="none" stroke="#ffffff"/>
        <line x1="13" x2="19" y1="19" y2="13" vector-effect="non-scaling-stroke" fill="none" stroke="#ffffff"/>
        <line x1="16" x2="20" y1="16" y2="20" vector-effect="non-scaling-stroke" fill="none" stroke="#ffffff"/>
        <line x1="19" x2="21" y1="21" y2="19" vector-effect="non-scaling-stroke" fill="none" stroke="#ffffff"/>
      </g>
    </g>
    <text id="ITEM_2_HEAD" x="1215.0" y="288.0" font-weight="700" font-size="26" fill="var(--inverse-text)" text-anchor="middle" data-bg-id="ITEM_2_BG" fill-opacity="1.0" style="font-size: 30px; font-family: Inter, Segoe UI, Kalam, Roboto, Helvetica, Arial, sans-serif; font-weight: 700; letter-spacing:-0.4px;" data-final-font-size="30">
      <tspan x="1215.0" dy="56.25px">Licensed Reach</tspan>
    </text>
    <text id="ITEM_2_BODY" x="1215.0" y="382.0" font-size="21" fill="var(--inverse-text)" text-anchor="middle" data-bg-id="ITEM_2_BG" style="font-size: 26px; font-family: Inter, Segoe UI, Kalam, Roboto, Helvetica, Arial, sans-serif; font-weight: 400;" data-final-font-size="26">
      <tspan x="1215.0" dy="42.44px">Star Wars and Harry Potter attract</tspan>
      <tspan x="1215.0" dy="29.90px">fans beyond traditional toy buyers</tspan>
    </text>
    <rect id="ITEM_3_BG" x="485" y="600" width="480" height="410" rx="16" fill="var(--accent-5)" stroke="var(--accent-3)" stroke-width="2" filter="url(#svg770b3f14-shadow)" fill-opacity="1.0"/>
    <rect x="485" y="600" width="480" height="410" rx="16" fill="url(#svg770b3f14-card-panel-sheen)" opacity="0.88"/>
    <rect x="485" y="616" width="460" height="12" fill="var(--accent-3)"/>
    <rect id="ITEM_3_HEAD_FRAME" x="500" y="718" width="450" height="96" fill="none"/>
    <rect id="ITEM_3_BODY_FRAME" x="500" y="812" width="450" height="168" fill="none"/>
    <circle id="ITEM_3_PAD" cx="715" cy="661" r="55" fill="var(--icon-pad-bg)" stroke="var(--primary-text)" opacity="0.9" fill-opacity="0.9" stroke-width="2"/>
    <circle cx="715" cy="661" r="44" fill="none" stroke="var(--accent-3)" stroke-width="3" stroke-dasharray="6 4"/>
    <circle id="ITEM_3_BADGE" cx="715" cy="661" r="43" fill="var(--accent-3)" stroke="var(--background)" stroke-width="4" fill-opacity="0.35" opacity="0.85" stroke-opacity="0.75"/>
    <g id="ITEM_3_ICON" transform="translate(682, 628)" data-icon-size="66">
      <g transform="translate(-14.337931034482757,-14.337931034482757) scale(3.9448275862068964)" vector-effect="non-scaling-stroke" stroke-width="2.50" stroke-linecap="round" stroke-linejoin="round" stroke-opacity="1.0">
        <path d="M2 9C2 6.17157 2 4.75736 2.87868 3.87868C3.75736 3 5.17157 3 8 3H16C18.8284 3 20.2426 3 21.1213 3.87868C22 4.75736 22 6.17157 22 9V10C22 12.8284 22 14.2426 21.1213 15.1213C20.2426 16 18.8284 16 16 16H8C5.17157 16 3.75736 16 2.87868 15.1213C2 14.2426 2 12.8284 2 10V9Z" stroke="#ffffff" vector-effect="non-scaling-stroke" fill="none"/>
        <path d="M12 19V16.5M12 19L18 21M12 19L6 21" stroke="#ffffff" vector-effect="non-scaling-stroke" fill="none"/>
      </g>
    </g>
    <text id="ITEM_3_HEAD" x="725.0" y="718.0" font-weight="700" font-size="26" fill="var(--primary-text)" text-anchor="middle" data-bg-id="ITEM_3_BG" fill-opacity="1.0" style="font-size: 30px; font-family: Inter, Segoe UI, Kalam, Roboto, Helvetica, Arial, sans-serif; font-weight: 700; letter-spacing:-0.4px;" data-final-font-size="30">
      <tspan x="725.0" dy="56.25px">Adult Collectors</tspan>
    </text>
    <text id="ITEM_3_BODY" x="725.0" y="812.0" font-size="21" fill="var(--primary-text)" text-anchor="middle" data-bg-id="ITEM_3_BG" style="font-size: 26px; font-family: Inter, Segoe UI, Kalam, Roboto, Helvetica, Arial, sans-serif; font-weight: 400;" data-final-font-size="26">
      <tspan x="725.0" dy="42.44px">Large display models serve</tspan>
      <tspan x="725.0" dy="29.90px">hobbyists and gift buyers directly</tspan>
    </text>
    <rect id="ITEM_4_BG" x="975" y="600" width="480" height="410" rx="16" fill="var(--accent-6)" stroke="var(--accent-4)" stroke-width="2" filter="url(#svg770b3f14-shadow)" fill-opacity="1.0"/>
    <rect x="975" y="600" width="480" height="410" rx="16" fill="url(#svg770b3f14-card-panel-sheen)" opacity="0.88"/>
    <rect x="975" y="616" width="460" height="12" fill="var(--accent-4)"/>
    <rect id="ITEM_4_HEAD_FRAME" x="990" y="718" width="450" height="96" fill="none"/>
    <rect id="ITEM_4_BODY_FRAME" x="990" y="812" width="450" height="168" fill="none"/>
    <circle id="ITEM_4_PAD" cx="1205" cy="661" r="55" fill="var(--icon-pad-bg)" stroke="var(--primary-text)" opacity="0.9" fill-opacity="0.9" stroke-width="2"/>
    <circle cx="1205" cy="661" r="44" fill="none" stroke="var(--accent-4)" stroke-width="3" stroke-dasharray="6 4"/>
    <circle id="ITEM_4_BADGE" cx="1205" cy="661" r="43" fill="var(--accent-4)" stroke="var(--background)" stroke-width="4" fill-opacity="0.35" opacity="0.85" stroke-opacity="0.75"/>
    <g id="ITEM_4_ICON" transform="translate(1172, 628)" data-icon-size="66">
      <g transform="translate(-13.445454545454549,-12.027272727272726) scale(0.17727272727272728)" vector-effect="non-scaling-stroke" fill="#ffffff" fill-opacity="1.0" stroke="none">
        <path fill="#ffffff" d="M267.375 14.688c-17.09 6.94-30.576 17.288-38.75 29.593l-14.813-27.593c-9.017 49.344-12.52 95.085 32 109.563c-10.734 36.94-17.187 73.9-20.687 110.813l-20.563-38.344c-2.848-14.713-9.618-30.698-17.343-47l-17.376 74.124c-7.214-22.468-16.496-44.677-28.47-66.47c24.46-43.217 16.134-70.568-31.093-79.28c-.515 3.04-.56 9.344-.56 9.344l-19.876-8.75L87.5 100.53l-9.344-4.655c-5.433 42.254-.12 74.946 46.625 72.094a342 342 0 0 1 10.314 20.28L29.22 156.312c31.263 45.247 64.173 82.76 112.53 47.094c10.985 26.656 18.485 53.944 23.75 81.72l-64.78-40.188c12.872 36.068 28.203 67.286 66.936 52.437c1.237 7.446 2.306 14.926 3.28 22.438h18.876c-2.757-21.95-6.533-43.82-11.906-65.5c8.208-4.095 14.35-8.853 18.75-14.188c3.693 11.197 11.61 19.643 26.438 23.594c-1.097 18.71-1.506 37.414-1.438 56.092h18.688c-.014-4.07-.003-8.12.03-12.187c41.888-6.813 39.48-42.478 32.407-81.188l-31.967 59.625c.765-23.7 2.492-47.326 5.593-70.906c52.515 5.043 61.144-38.783 65.125-87.78l-61.81 65.843c3.47-20.563 8.06-41.09 14-61.564c37.544 4.596 76.884-35.765 75.28-70l-12.438 7.72c-1.053-11.96-6.674-25.51-17.125-40.69c-7.535 5.354-14.003 12.573-19.843 20.44L285.5 31.03l-11.688 14.595c-.32-10.47-2.17-20.77-6.437-30.938zm182.22 99.25c-4.994.008-10.98.86-18.25 2.906c-13.336 3.754-27.52 12.25-22.376 37.625c-24.488 13.127-45.408 31.122-62.25 53.155h-.19c.03.045.067.08.095.125c-.8 1.05-1.593 2.09-2.375 3.156l23.063-76.344c-45.938 31.743-83.94 65.165-45.438 114.75c-9.69 21.296-16.536 44.94-20.313 70.5h38.032c24.53-7.376 29.6-36.436 32.187-68.25l-48.155 51.282c6.766-30.55 18.424-57.235 34.406-79.47c36.727 42.145 77.18 14.898 118.033-19.81l-104.594 3.28c13.094-14.284 28.35-26.198 45.56-35.5c11.388 14.74 28.402 14.172 40.595 7.812c25.338-13.216 17.442-27.84 38.28-45.906c-20.892 5.264-19.352-19.358-46.31-19.313zM152.936 338.5l26.032 154.594h143.593L348.969 338.5z" vector-effect="non-scaling-stroke" stroke="none"/>
      </g>
    </g>
    <text id="ITEM_4_HEAD" x="1215.0" y="718.0" font-weight="700" font-size="26" fill="var(--inverse-text)" text-anchor="middle" data-bg-id="ITEM_4_BG" fill-opacity="1.0" style="font-size: 30px; font-family: Inter, Segoe UI, Kalam, Roboto, Helvetica, Arial, sans-serif; font-weight: 700; letter-spacing:-0.4px;" data-final-font-size="30">
      <tspan x="1215.0" dy="56.25px">Botanical Range</tspan>
    </text>
    <text id="ITEM_4_BODY" x="1215.0" y="812.0" font-size="21" fill="var(--inverse-text)" text-anchor="middle" data-bg-id="ITEM_4_BG" style="font-size: 26px; font-family: Inter, Segoe UI, Kalam, Roboto, Helvetica, Arial, sans-serif; font-weight: 400;" data-final-font-size="26">
      <tspan x="1215.0" dy="42.44px">Flower bouquets compete with home</tspan>
      <tspan x="1215.0" dy="29.90px">décor and gifting occasions</tspan>
    </text>
  </g>
</svg>
