<?xml version='1.0' encoding='utf-8'?>
<svg xmlns="http://www.w3.org/2000/svg" width="1920" height="1080" viewBox="0 0 1920 1080" data-theme="light">
  <style>
        @font-face {
            font-family: 'Inter';
            src: url('assets/fonts/Inter-Regular.ttf') format('truetype');
            font-weight: 400;
            font-style: normal;
            font-display: swap;
        }
        @font-face {
            font-family: 'Inter';
            src: url('assets/fonts/Inter-Bold.ttf') format('truetype');
            font-weight: 600;
            font-style: normal;
            font-display: swap;
        }
        @font-face {
            font-family: 'Inter';
            src: url('assets/fonts/Inter-Bold.ttf') format('truetype');
            font-weight: 800;
            font-style: normal;
            font-display: swap;
        }
        
:root {
    --background: #f8fafc;
    --panel: #ffffff;
    --primary-text: #0f172a;
    --muted-text: #64748b;
    --inverse-text: #ffffff;
    --border: #e2e8f0;
    --shadow-color: #000000;
    --icon-pad-bg: #1e293b;
    --art-glow: #0891b2;
    --art-glow-opacity: 0.10;
    --art-sheen: #ffffff;
    --art-sheen-opacity: 0.34;
    --art-shadow: #0f172a;
    --art-shadow-opacity: 0.14;
    --art-muted-line: #94a3b8;
    --art-panel-tint: #f1f5f9;
    --font-family: 'Inter', 'Segoe UI', 'Kalam', Roboto, Helvetica, Arial, sans-serif;
    --radius-xl: 16px;
    --font-family-headline: 'Inter', 'Segoe UI', 'Kalam', Roboto, Helvetica, Arial, sans-serif;
    --font-family-body: 'Inter', 'Segoe UI', 'Kalam', Roboto, Helvetica, Arial, sans-serif;
    --font-heading: 'Inter', 'Segoe UI', 'Kalam', Roboto, Helvetica, Arial, sans-serif;
    --font-body: 'Inter', 'Segoe UI', 'Kalam', Roboto, Helvetica, Arial, sans-serif;
    --font-size-h1: 56px;
    --font-size-h2: 40px;
    --font-size-h3: 28px;
    --font-size-body: 24px;
    --font-size-caption: 18px;
    --secondary-text: var(--muted-text);
    --panel-border: var(--border);
    --font-weight-normal: 400;
    --font-weight-medium: 500;
    --font-weight-semibold: 600;
    --font-weight-bold: 700;
    --spacing-gutter-pct: 0.07;
    --spacing-top-pct: 0.15;
    --spacing-bottom-pct: 0.07;
    --spacing-title-y-pct: 0.055;
    --accent-1: #3b82f6;
    --accent-2: #22c55e;
    --accent-3: #f59e0b;
    --accent-4: #ec4899;
    --accent-5: #8b5cf6;
    --accent-6: #06b6d4;
}
:root[data-theme="dark"] {
    --background: #0f172a;
    --panel: #1e293b;
    --primary-text: #f1f5f9;
    --muted-text: #94a3b8;
    --inverse-text: #0f172a;
    --border: #334155;
    --shadow-color: #000000;
    --icon-pad-bg: #1e293b;
    --art-glow: #7dd3fc;
    --art-glow-opacity: 0.18;
    --art-sheen: #ffffff;
    --art-sheen-opacity: 0.18;
    --art-shadow: #000000;
    --art-shadow-opacity: 0.28;
    --art-muted-line: #64748b;
    --art-panel-tint: #1e293b;
    --accent-1: #93c5fd;
    --accent-2: #86efac;
    --accent-3: #fcd34d;
    --accent-4: #f9a8d4;
    --accent-5: #c4b5fd;
    --accent-6: #a5f3fc;
}
:root[data-theme="light"] {
    --background: #f8fafc;
    --panel: #ffffff;
    --primary-text: #0f172a;
    --muted-text: #64748b;
    --inverse-text: #ffffff;
    --border: #e2e8f0;
    --shadow-color: #000000;
    --icon-pad-bg: #1e293b;
    --art-glow: #0891b2;
    --art-glow-opacity: 0.10;
    --art-sheen: #ffffff;
    --art-sheen-opacity: 0.34;
    --art-shadow: #0f172a;
    --art-shadow-opacity: 0.14;
    --art-muted-line: #94a3b8;
    --art-panel-tint: #f1f5f9;
    --accent-1: #3b82f6;
    --accent-2: #22c55e;
    --accent-3: #f59e0b;
    --accent-4: #ec4899;
    --accent-5: #8b5cf6;
    --accent-6: #06b6d4;
}</style>
  <rect x="0" y="0" width="1.92E+3" height="1.08E+3" fill="#252a34" stroke="none" id="programmatic_background"/>
  <line id="HEADER_DECOR" x1="960.0" x2="1080.0" y1="95.0" y2="95.0" stroke="var(--accent-1)" stroke-width="6" stroke-linecap="round"/>
  <defs>
    <pattern id="svgfa4dea3c-napkin-hatch" patternUnits="userSpaceOnUse" width="12" height="12">
      <path d="M -3 12 L 12 -3 M 0 15 L 15 0" fill="none" stroke="var(--primary-text)" stroke-width="1" stroke-opacity="0.05"/>
    </pattern>
    <filter id="svgfa4dea3c-shadow" x="-30%" y="-30%" width="160%" height="160%">
      <feDropShadow dx="0" dy="4" stdDeviation="5" flood-color="#000000" flood-opacity="0.15"/>
    </filter>
    <filter id="svgfa4dea3c-text-glow" x="-20%" y="-20%" width="140%" height="140%">
      <feDropShadow dx="0" dy="0" stdDeviation="3" flood-color="#000000" flood-opacity="0.8"/>
    </filter>
    <radialGradient id="svgfa4dea3c-universal-edge-vignette" cx="50%" cy="50%" r="72%">
      <stop offset="0%" stop-color="var(--background)" stop-opacity="0"/>
      <stop offset="72%" stop-color="var(--background)" stop-opacity="0.12"/>
      <stop offset="100%" stop-color="var(--primary-text)" stop-opacity="0.08"/>
    </radialGradient>
    <linearGradient id="svgfa4dea3c-universal-surface-sheen" x1="0%" y1="0%" x2="100%" y2="100%">
      <stop offset="0%" stop-color="var(--art-sheen)" stop-opacity="var(--art-sheen-opacity)"/>
      <stop offset="46%" stop-color="var(--art-sheen)" stop-opacity="0.035"/>
      <stop offset="100%" stop-color="var(--art-panel-tint)" stop-opacity="0.14"/>
    </linearGradient>
    <radialGradient id="svgfa4dea3c-universal-icon-aura" cx="50%" cy="42%" r="64%">
      <stop offset="0%" stop-color="var(--art-glow)" stop-opacity="var(--art-glow-opacity)"/>
      <stop offset="100%" stop-color="var(--background)" stop-opacity="0"/>
    </radialGradient>
    <linearGradient id="svgfa4dea3c-earth-core-horizon" x1="0%" y1="0%" x2="0%" y2="100%">
      <stop offset="0%" stop-color="var(--accent-2)" stop-opacity="0.12"/>
      <stop offset="100%" stop-color="var(--background)" stop-opacity="0"/>
    </linearGradient>
    <marker id="svgfa4dea3c-arrowhead" markerWidth="10" markerHeight="7" refX="9" refY="3.5" orient="auto" markerUnits="strokeWidth">
      <polygon points="0 0, 10 3.5, 0 7" fill="var(--muted-text)" opacity="0.6"/>
    </marker>
  </defs>
  <rect width="100%" height="100%" fill="var(--background)" id="CANVAS_BG"/>
  <rect width="100%" height="100%" fill="url(#svgfa4dea3c-napkin-hatch)"/>
  <rect id="UNIVERSAL_EDGE_VIGNETTE" width="100%" height="100%" fill="url(#svgfa4dea3c-universal-edge-vignette)" opacity="0.62"/>
  <rect id="TITLE_FRAME" x="134" y="30" width="1652" height="70" fill="none"/>
  <text id="TITLE" x="960.0" y="59" font-size="48" font-weight="700" fill="#0f172a" text-anchor="middle" style="font-size: 60px; font-family: Inter, Segoe UI, Kalam, Roboto, Helvetica, Arial, sans-serif; font-weight: 700; letter-spacing:-1.2px;" data-final-font-size="60">
    <tspan x="960.0" dy="68.00px">Diversified Demand</tspan>
  </text>
  <g id="DIAGRAM_MAIN">
    <rect id="EARTH_CORE_HORIZON" x="0" y="120" width="1920" height="380" fill="url(#svgfa4dea3c-earth-core-horizon)" opacity="0.80"/>
    <path id="EARTH_CORE_SURFACE_GLINT" d="M 236 286 C 622 236 1298 236 1684 286" fill="none" stroke="var(--inverse-text)" stroke-width="2" stroke-opacity="0.12" stroke-linecap="round"/>
    <!-- Layer 1 -->
    <circle id="ITEM_1_BG_RING" cx="960" cy="2280" r="2100" fill="var(--accent-5)" fill-opacity="1.0" stroke="var(--accent-5)" stroke-width="2" stroke-dasharray="10 10" stroke-opacity="1.0"/>
    <!-- Layer 2 -->
    <circle id="ITEM_2_BG_RING" cx="960" cy="2280" r="1950" fill="var(--accent-6)" fill-opacity="1.0" stroke="var(--accent-6)" stroke-width="2" stroke-dasharray="10 10" stroke-opacity="1.0"/>
    <!-- Layer 3 -->
    <circle id="ITEM_3_BG_RING" cx="960" cy="2280" r="1800" fill="var(--accent-1)" fill-opacity="1.0" stroke="var(--accent-1)" stroke-width="2" stroke-dasharray="10 10" stroke-opacity="1.0"/>
    <!-- Layer 4 -->
    <circle id="ITEM_4_BG_RING" cx="960" cy="2280" r="1650" fill="var(--accent-2)" fill-opacity="1.0" stroke="var(--accent-2)" stroke-width="2" stroke-dasharray="10 10" stroke-opacity="1.0"/>
    <!-- Layer 5 -->
    <circle id="ITEM_5_BG_RING" cx="960" cy="2280" r="1500" fill="var(--accent-3)" fill-opacity="1.0" stroke="var(--accent-3)" stroke-width="2" stroke-dasharray="10 10" stroke-opacity="1.0"/>
    <!-- Layer 6 -->
    <circle id="ITEM_6_BG_RING" cx="960" cy="2280" r="1350" fill="var(--accent-4)" fill-opacity="1.0" stroke="var(--accent-4)" stroke-width="2" stroke-dasharray="10 10" stroke-opacity="1.0"/>
    <!-- Central Axis Line -->
    <line x1="960" y1="200" x2="960" y2="1050" stroke="var(--primary-text)" stroke-width="4" stroke-dasharray="16 12" stroke-linecap="round" opacity="0.3"/>
    <circle cx="960" cy="250.0" r="64" fill="url(#svgfa4dea3c-universal-icon-aura)" opacity="0.82"/>
    <g transform="translate(960, 250.0)">
      <circle id="ITEM_1_STROKE" cx="0" cy="0" r="37" fill="transparent" stroke="var(--accent-5)" stroke-width="3" stroke-opacity="1.0"/>
      <circle id="ITEM_1_BORDER" cx="0" cy="0" r="45" fill="transparent" stroke="var(--accent-5)" stroke-width="3" stroke-dasharray="6 4" stroke-opacity="1.0"/>
      <circle id="ITEM_1_PAD" cx="0.00" cy="0.00" r="40.00" fill="var(--icon-pad-bg)" stroke="var(--primary-text)" stroke-width="2" opacity="0.9"/>
      <circle id="ITEM_1_PAD_INNER" cx="0.00" cy="0.00" r="31.20" fill="var(--accent-5)" fill-opacity="0.22"/>
      <g id="ITEM_1_ICON" transform="translate(-25, -25)" data-icon-size="50" stroke-dasharray="6 4">
        <g transform="translate(-8.844067796610172,-8.844067796610172) scale(2.820338983050848)" vector-effect="non-scaling-stroke" stroke-width="2.31" stroke-linecap="round" stroke-linejoin="round" stroke-opacity="1.0">
          <path d="M21.3 15.3a2.4 2.4 0 0 1 0 3.4l-2.6 2.6a2.4 2.4 0 0 1-3.4 0L2.7 8.7a2.41 2.41 0 0 1 0-3.4l2.6-2.6a2.41 2.41 0 0 1 3.4 0Z" vector-effect="non-scaling-stroke" fill="none" stroke="#f1f5f9"/>
          <path d="m14.5 12.5 2-2" vector-effect="non-scaling-stroke" fill="none" stroke="#f1f5f9"/>
          <path d="m11.5 9.5 2-2" vector-effect="non-scaling-stroke" fill="none" stroke="#f1f5f9"/>
          <path d="m8.5 6.5 2-2" vector-effect="non-scaling-stroke" fill="none" stroke="#f1f5f9"/>
          <path d="m17.5 15.5 2-2" vector-effect="non-scaling-stroke" fill="none" stroke="#f1f5f9"/>
        </g>
      </g>
    </g>
    <!-- Connector -->
    <line id="ITEM_1_CONN" x1="920" y1="250.0" x2="670.0" y2="250.0" stroke="var(--accent-5)" stroke-width="2" stroke-dasharray="4 4" opacity="0.6" stroke-opacity="1.0"/>
    <circle cx="670.0" cy="250.0" r="5" fill="var(--accent-1)"/>
    <!-- Rigid text block -->
    <!-- _FRAME guarantees text wraps neatly within text_w -->
    <rect id="ITEM_1_TEXT_BG" x="32.0" y="159.0" width="636.0" height="207.0" rx="22" fill="var(--panel)" fill-opacity="0.94" stroke="var(--primary-text)" stroke-opacity="0.12" stroke-width="1.5"/>
    <rect x="32.0" y="159.0" width="636.0" height="207.0" rx="16" fill="url(#svgfa4dea3c-universal-surface-sheen)" opacity="0.76"/>
    <rect id="ITEM_1_HEAD_FRAME" x="50.0" y="175.0" width="600" height="45" fill="none"/>
    <text id="ITEM_1_HEAD" data-bg-id="ITEM_1_TEXT_BG" x="650.0" y="175.0" font-weight="bold" font-size="28" fill="var(--primary-text)" text-anchor="end" fill-opacity="1.0" style="font-size: 30px; font-family: Inter, Segoe UI, Kalam, Roboto, Helvetica, Arial, sans-serif; font-weight: 700; letter-spacing:-0.4px;" data-final-font-size="30">
      <tspan x="650.0" dy="30.75px">Home Decorator</tspan>
    </text>
    <rect id="ITEM_1_BODY_FRAME" x="50.0" y="265.0" width="600" height="85" fill="none"/>
    <text id="ITEM_1_BODY" data-bg-id="ITEM_1_TEXT_BG" x="650.0" y="265.0" font-size="20" fill="var(--primary-text)" opacity="0.9" text-anchor="end" style="font-size: 26px; font-family: Inter, Segoe UI, Kalam, Roboto, Helvetica, Arial, sans-serif; font-weight: 400;" data-final-font-size="26">
      <tspan x="650.0" dy="31.82px">Buyer seeks interior style object</tspan>
    </text>
    <circle cx="960" cy="390.0" r="64" fill="url(#svgfa4dea3c-universal-icon-aura)" opacity="0.82"/>
    <g transform="translate(960, 390.0)">
      <circle id="ITEM_2_STROKE" cx="0" cy="0" r="37" fill="transparent" stroke="var(--accent-6)" stroke-width="3" stroke-opacity="1.0"/>
      <circle id="ITEM_2_BORDER" cx="0" cy="0" r="45" fill="transparent" stroke="var(--accent-6)" stroke-width="3" stroke-dasharray="6 4" stroke-opacity="1.0"/>
      <circle id="ITEM_2_PAD" cx="0.00" cy="0.00" r="40.00" fill="var(--icon-pad-bg)" stroke="var(--primary-text)" stroke-width="2" opacity="0.9"/>
      <circle id="ITEM_2_PAD_INNER" cx="0.00" cy="0.00" r="31.20" fill="var(--accent-6)" fill-opacity="0.22"/>
      <g id="ITEM_2_ICON" transform="translate(-25, -25)" data-icon-size="50" stroke-dasharray="6 4">
        <g transform="translate(-10.1,-10.65714285714286) scale(2.2285714285714286)">
          <path d="M19.6288 30.0005H11.7156C10.9356 30.0005 10.3036 29.3685 10.3036 28.5884V15.4698C10.3036 14.6897 10.9356 14.0577 11.7156 14.0577H19.6288C20.4089 14.0577 21.0409 14.6897 21.0409 15.4698V28.5884C21.0409 29.3685 20.4089 30.0005 19.6288 30.0005Z" fill="#FFDEA7"/>
          <path d="M16.4787 9.73157H14.866V12.1041H16.4787V9.73157Z" fill="#9B9B9B"/>
          <path d="M20.5408 11.4495H10.8045C9.80758 11.4495 9 12.2579 9 13.254V17.8972C9 18.6878 9.6336 19.3303 10.4201 19.3449C11.2318 19.3602 11.8961 18.6708 11.8961 17.8592V15.5141C11.8961 15.2624 12.1001 15.0585 12.3517 15.0585C12.6034 15.0585 15.2924 15.0585 15.2924 15.0585C15.4841 15.0585 15.6403 15.2139 15.6403 15.4065V16.1712C15.6403 16.9828 16.3047 17.6722 17.1163 17.6569C17.9036 17.6423 18.5364 16.9998 18.5364 16.2092V15.5141C18.5364 15.2624 18.7404 15.0585 18.992 15.0585C19.2437 15.0585 19.4476 15.2624 19.4476 15.5141V20.1524C19.4476 20.9641 20.112 21.6535 20.9236 21.6381C21.7109 21.6236 22.3437 20.9811 22.3437 20.1905V13.2548C22.3445 12.2579 21.537 11.4495 20.5408 11.4495Z" fill="#FFCE7C"/>
          <path d="M18.258 5.57141L16.4082 2.42119C16.078 1.8596 15.2664 1.8596 14.9362 2.42119L13.0807 5.58031C13.0565 5.61996 13.033 5.65962 13.0103 5.70008L12.9998 5.71707C12.7425 6.18479 12.6049 6.72614 12.6268 7.30229C12.6883 8.90694 14.0259 10.2089 15.6313 10.2292C17.3331 10.251 18.7193 8.87862 18.7193 7.18253C18.7193 6.59101 18.5501 6.03832 18.258 5.57141Z" fill="#FFB02E"/>
          <path d="M15.6727 9.03566C16.5911 9.03566 17.3356 8.29115 17.3356 7.37275C17.3356 6.45435 16.5911 5.70984 15.6727 5.70984C14.7543 5.70984 14.0098 6.45435 14.0098 7.37275C14.0098 8.29115 14.7543 9.03566 15.6727 9.03566Z" fill="#FCD53F"/>
        </g>
      </g>
    </g>
    <!-- Connector -->
    <line id="ITEM_2_CONN" x1="1000" y1="390.0" x2="1250.0" y2="390.0" stroke="var(--accent-6)" stroke-width="2" stroke-dasharray="4 4" opacity="0.6" stroke-opacity="1.0"/>
    <circle cx="1250.0" cy="390.0" r="5" fill="var(--accent-2)"/>
    <!-- Rigid text block -->
    <!-- _FRAME guarantees text wraps neatly within text_w -->
    <rect id="ITEM_2_TEXT_BG" x="1252.0" y="299.0" width="636.0" height="207.0" rx="22" fill="var(--panel)" fill-opacity="0.94" stroke="var(--primary-text)" stroke-opacity="0.12" stroke-width="1.5"/>
    <rect x="1252.0" y="299.0" width="636.0" height="207.0" rx="16" fill="url(#svgfa4dea3c-universal-surface-sheen)" opacity="0.76"/>
    <rect id="ITEM_2_HEAD_FRAME" x="1270.0" y="315.0" width="600" height="45" fill="none"/>
    <text id="ITEM_2_HEAD" data-bg-id="ITEM_2_TEXT_BG" x="1270.0" y="315.0" font-weight="bold" font-size="28" fill="var(--primary-text)" text-anchor="start" fill-opacity="1.0" style="font-size: 30px; font-family: Inter, Segoe UI, Kalam, Roboto, Helvetica, Arial, sans-serif; font-weight: 700; letter-spacing:-0.4px;" data-final-font-size="30">
      <tspan x="1270.0" dy="30.75px">Gift Buyer</tspan>
    </text>
    <rect id="ITEM_2_BODY_FRAME" x="1270.0" y="405.0" width="600" height="85" fill="none"/>
    <text id="ITEM_2_BODY" data-bg-id="ITEM_2_TEXT_BG" x="1270.0" y="405.0" font-size="20" fill="var(--primary-text)" opacity="0.9" text-anchor="start" style="font-size: 26px; font-family: Inter, Segoe UI, Kalam, Roboto, Helvetica, Arial, sans-serif; font-weight: 400;" data-final-font-size="26">
      <tspan x="1270.0" dy="31.82px">Purchase justified like candles</tspan>
    </text>
    <circle cx="960" cy="530.0" r="64" fill="url(#svgfa4dea3c-universal-icon-aura)" opacity="0.82"/>
    <g transform="translate(960, 530.0)">
      <circle id="ITEM_3_STROKE" cx="0" cy="0" r="37" fill="transparent" stroke="var(--accent-1)" stroke-width="3" stroke-opacity="1.0"/>
      <circle id="ITEM_3_BORDER" cx="0" cy="0" r="45" fill="transparent" stroke="var(--accent-1)" stroke-width="3" stroke-dasharray="6 4" stroke-opacity="1.0"/>
      <circle id="ITEM_3_PAD" cx="0.00" cy="0.00" r="40.00" fill="var(--icon-pad-bg)" stroke="var(--primary-text)" stroke-width="2" opacity="0.9"/>
      <circle id="ITEM_3_PAD_INNER" cx="0.00" cy="0.00" r="31.20" fill="var(--accent-1)" fill-opacity="0.22"/>
      <g id="ITEM_3_ICON" transform="translate(-25, -25)" data-icon-size="50" stroke-dasharray="6 4">
        <g transform="translate(-11.977777777777781,-11.977777777777781) scale(3.081481481481482)" vector-effect="non-scaling-stroke" stroke-width="2.31" stroke-linecap="round" stroke-linejoin="round" stroke-opacity="1.0">
          <path d="M14.42 9.058l-5.362 5.363a1.978 1.978 0 0 1 -3.275 -.773l-2.682 -8.044a1.978 1.978 0 0 1 2.502 -2.502l8.045 2.682a1.978 1.978 0 0 1 .773 3.274z" vector-effect="non-scaling-stroke" fill="none" stroke="#f1f5f9"/>
          <path d="M10 10l6.5 6.5" vector-effect="non-scaling-stroke" fill="none" stroke="#f1f5f9"/>
          <path d="M19.347 16.575l1.08 1.079a1.96 1.96 0 0 1 -2.773 2.772l-1.08 -1.079a1.96 1.96 0 0 1 2.773 -2.772z" vector-effect="non-scaling-stroke" fill="none" stroke="#f1f5f9"/>
        </g>
      </g>
    </g>
    <!-- Connector -->
    <line id="ITEM_3_CONN" x1="920" y1="530.0" x2="670.0" y2="530.0" stroke="var(--accent-1)" stroke-width="2" stroke-dasharray="4 4" opacity="0.6" stroke-opacity="1.0"/>
    <circle cx="670.0" cy="530.0" r="5" fill="var(--accent-3)"/>
    <!-- Rigid text block -->
    <!-- _FRAME guarantees text wraps neatly within text_w -->
    <rect id="ITEM_3_TEXT_BG" x="32.0" y="439.0" width="636.0" height="207.0" rx="22" fill="var(--panel)" fill-opacity="0.94" stroke="var(--primary-text)" stroke-opacity="0.12" stroke-width="1.5"/>
    <rect x="32.0" y="439.0" width="636.0" height="207.0" rx="16" fill="url(#svgfa4dea3c-universal-surface-sheen)" opacity="0.76"/>
    <rect id="ITEM_3_HEAD_FRAME" x="50.0" y="455.0" width="600" height="45" fill="none"/>
    <text id="ITEM_3_HEAD" data-bg-id="ITEM_3_TEXT_BG" x="650.0" y="455.0" font-weight="bold" font-size="28" fill="var(--primary-text)" text-anchor="end" fill-opacity="1.0" style="font-size: 30px; font-family: Inter, Segoe UI, Kalam, Roboto, Helvetica, Arial, sans-serif; font-weight: 700; letter-spacing:-0.4px;" data-final-font-size="30">
      <tspan x="650.0" dy="30.75px">Plant Enthusiast</tspan>
    </text>
    <rect id="ITEM_3_BODY_FRAME" x="50.0" y="545.0" width="600" height="85" fill="none"/>
    <text id="ITEM_3_BODY" data-bg-id="ITEM_3_TEXT_BG" x="650.0" y="545.0" font-size="20" fill="var(--primary-text)" opacity="0.9" text-anchor="end"/>
    <circle cx="960" cy="670.0" r="64" fill="url(#svgfa4dea3c-universal-icon-aura)" opacity="0.82"/>
    <g transform="translate(960, 670.0)">
      <circle id="ITEM_4_STROKE" cx="0" cy="0" r="37" fill="transparent" stroke="var(--accent-2)" stroke-width="3" stroke-opacity="1.0"/>
      <circle id="ITEM_4_BORDER" cx="0" cy="0" r="45" fill="transparent" stroke="var(--accent-2)" stroke-width="3" stroke-dasharray="6 4" stroke-opacity="1.0"/>
      <circle id="ITEM_4_PAD" cx="0.00" cy="0.00" r="40.00" fill="var(--icon-pad-bg)" stroke="var(--primary-text)" stroke-width="2" opacity="0.9"/>
      <circle id="ITEM_4_PAD_INNER" cx="0.00" cy="0.00" r="31.20" fill="var(--accent-2)" fill-opacity="0.22"/>
      <g id="ITEM_4_ICON" transform="translate(-25, -25)" data-icon-size="50" stroke-dasharray="6 4">
        <g transform="translate(-8.844067796610172,-8.844067796610172) scale(2.820338983050848)" vector-effect="non-scaling-stroke" stroke-width="2.31" stroke-linecap="round" stroke-linejoin="round" stroke-opacity="1.0">
          <path d="M12 22a1 1 0 0 1 0-20 10 9 0 0 1 10 9 5 5 0 0 1-5 5h-2.25a1.75 1.75 0 0 0-1.4 2.8l.3.4a1.75 1.75 0 0 1-1.4 2.8z" vector-effect="non-scaling-stroke" fill="none" stroke="#f1f5f9"/>
          <circle cx="13.5" cy="6.5" r=".5" fill="#f1f5f9" vector-effect="non-scaling-stroke" stroke="#f1f5f9"/>
          <circle cx="17.5" cy="10.5" r=".5" fill="#f1f5f9" vector-effect="non-scaling-stroke" stroke="#f1f5f9"/>
          <circle cx="6.5" cy="12.5" r=".5" fill="#f1f5f9" vector-effect="non-scaling-stroke" stroke="#f1f5f9"/>
          <circle cx="8.5" cy="7.5" r=".5" fill="#f1f5f9" vector-effect="non-scaling-stroke" stroke="#f1f5f9"/>
        </g>
      </g>
    </g>
    <!-- Connector -->
    <line id="ITEM_4_CONN" x1="1000" y1="670.0" x2="1250.0" y2="670.0" stroke="var(--accent-2)" stroke-width="2" stroke-dasharray="4 4" opacity="0.6" stroke-opacity="1.0"/>
    <circle cx="1250.0" cy="670.0" r="5" fill="var(--accent-4)"/>
    <!-- Rigid text block -->
    <!-- _FRAME guarantees text wraps neatly within text_w -->
    <rect id="ITEM_4_TEXT_BG" x="1252.0" y="579.0" width="636.0" height="207.0" rx="22" fill="var(--panel)" fill-opacity="0.94" stroke="var(--primary-text)" stroke-opacity="0.12" stroke-width="1.5"/>
    <rect x="1252.0" y="579.0" width="636.0" height="207.0" rx="16" fill="url(#svgfa4dea3c-universal-surface-sheen)" opacity="0.76"/>
    <rect id="ITEM_4_HEAD_FRAME" x="1270.0" y="595.0" width="600" height="45" fill="none"/>
    <text id="ITEM_4_HEAD" data-bg-id="ITEM_4_TEXT_BG" x="1270.0" y="595.0" font-weight="bold" font-size="28" fill="var(--primary-text)" text-anchor="start" fill-opacity="1.0" style="font-size: 30px; font-family: Inter, Segoe UI, Kalam, Roboto, Helvetica, Arial, sans-serif; font-weight: 700; letter-spacing:-0.4px;" data-final-font-size="30">
      <tspan x="1270.0" dy="30.75px">Design Consumer</tspan>
    </text>
    <rect id="ITEM_4_BODY_FRAME" x="1270.0" y="685.0" width="600" height="85" fill="none"/>
    <text id="ITEM_4_BODY" data-bg-id="ITEM_4_TEXT_BG" x="1270.0" y="685.0" font-size="20" fill="var(--primary-text)" opacity="0.9" text-anchor="start" style="font-size: 26px; font-family: Inter, Segoe UI, Kalam, Roboto, Helvetica, Arial, sans-serif; font-weight: 400;" data-final-font-size="26">
      <tspan x="1270.0" dy="31.82px">Consumer buys for aesthetic value</tspan>
    </text>
    <circle cx="960" cy="810.0" r="64" fill="url(#svgfa4dea3c-universal-icon-aura)" opacity="0.82"/>
    <g transform="translate(960, 810.0)">
      <circle id="ITEM_5_STROKE" cx="0" cy="0" r="37" fill="transparent" stroke="var(--accent-3)" stroke-width="3" stroke-opacity="1.0"/>
      <circle id="ITEM_5_BORDER" cx="0" cy="0" r="45" fill="transparent" stroke="var(--accent-3)" stroke-width="3" stroke-dasharray="6 4" stroke-opacity="1.0"/>
      <circle id="ITEM_5_PAD" cx="0.00" cy="0.00" r="40.00" fill="var(--icon-pad-bg)" stroke="var(--primary-text)" stroke-width="2" opacity="0.9"/>
      <circle id="ITEM_5_PAD_INNER" cx="0.00" cy="0.00" r="31.20" fill="var(--accent-3)" fill-opacity="0.22"/>
      <g id="ITEM_5_ICON" transform="translate(-25, -25)" data-icon-size="50" stroke-dasharray="6 4">
        <g transform="translate(-8.844067796610172,-8.844067796610172) scale(1.6922033898305087)">
          <path d="m10.84,12.82c0,.03.01.05,0,.08l-1.66,3.22c-.06-.04-.13-.05-.19-.07-.57-.23-1.19-.09-1.46.38-.31.52-.05,1.24.58,1.6.28.16.58.21.86.18l-.09,1.27c-1.12-.17-2.18-.33-3.14-.48-.62-.72-.99-1.64-.98-2.66.03-2.09,1.68-3.81,3.74-3.97v-.01c.04-.01.08,0,.12-.01h.17c.91-.03,1.56.2,1.94.31.08.02.11.09.11.16Z" fill="#ff9000"/>
          <path d="m10.84,12.82c0,.03.01.05,0,.08l-1.66,3.22c-.06-.04-.13-.05-.19-.07-.57-.23-1.19-.09-1.46.38-.31.52-.05,1.24.58,1.6.28.16.58.21.86.18l-.09,1.27c.88.13,1.82.27,2.8.41.99-.76,1.64-1.94,1.64-3.28,0-1.7-1.02-3.15-2.48-3.79Zm1.44,2.98c-.17.06-.41-.14-.53-.46s-.08-.63.09-.69c.17-.07.4.14.52.45.13.32.09.63-.08.7Z" fill="#ffcd00"/>
          <path d="m27.385,3.358c-.143-.15-.38-.155-.529-.012l-.666.635-4.213.555.013.014c.3.011,1.527,1.06,2.889,2.486,1.362,1.427,2.353,2.701,2.35,3.002l.013.014.75-4.183.666-.635c.15-.143.155-.38.012-.529l-.144-.151-.859-.9-.282-.296Z" fill="#cad5e6"/>
          <path d="m19.756,20.887c.426.043.853.085,1.29.125-.007-.084-.025-.165-.025-.251,0-.625.2-1.201.534-1.676-.545-.229-.971-.676-1.184-1.229-.05-.004-.098-.015-.15-.015-.764,0-1.434.395-1.822.991.721.442,1.228,1.183,1.357,2.054Z" fill="#dde4f0"/>
          <path d="m21.555,19.086c-.334.475-.534,1.051-.534,1.676,0,.086.018.167.025.251,1.818.167,3.73.309,5.73.415.05-.215.083-.436.083-.666,0-.206-.022-.406-.063-.599-.244-1.171-1.192-2.076-2.38-2.272-.156-.026-.313-.048-.476-.048-.987,0-1.857.493-2.385,1.244Z" fill="#d1d8e3"/>
          <path d="m21.555,19.086c.528-.75,1.397-1.244,2.385-1.244.163,0,.32.022.476.048.101-.251.16-.524.16-.812,0-1.203-.975-2.177-2.177-2.177s-2.177.975-2.177,2.177c0,.275.057.536.15.779.213.553.639.999,1.184,1.229Z" fill="#e4ebf7"/>
          <path d="m26.775,21.427c.815.043,1.64.082,2.484.111h.358c-.28-.878-1.094-1.519-2.065-1.519-.267,0-.52.055-.756.143.04.193.063.393.063.599,0,.23-.033.451-.083.666Z" fill="#e4ebf7"/>
          <path d="m19.756,20.887c-.129-.871-.637-1.613-1.357-2.054-.444-.272-.96-.437-1.519-.437-1.23,0-2.278.763-2.708,1.84,1.739.23,3.606.453,5.584.651Z" fill="#e4ebf7"/>
          <path d="m32.244,20.343c0-.188.152-.34.34-.34h3.013v1.536h1.185c.017,0,.033.003.05.004v-10.912c0-1.393,0-5.094-3.261-7.305-1.406-.953-3.015-1.084-4.655-.378-.497.214-.918.473-1.249.706l.859.9c.941-.627,2.635-1.371,4.352-.207,2.719,1.844,2.719,4.955,2.719,6.284v8.063h-3.944c-.46,0-.833.373-.833.833v2.012h1.424v-1.196Z" fill="#a3acba"/>
          <path d="m24.879,7.037c-1.362-1.427-2.589-2.476-2.889-2.486-.022,0-.052-.01-.064,0-.168.16.882,1.532,2.346,3.065,1.463,1.533,2.785,2.646,2.953,2.485.012-.011.004-.041.004-.063.003-.3-.988-1.575-2.35-3.002Z" fill="#a3acba"/>
          <path d="m9.019,35.806c-.477.728.046,1.694.916,1.694h.679c.592,0,1.144-.298,1.468-.793l.95-1.451c-1.088-.379-2.012-.832-2.765-1.356l-1.248,1.906Z" fill="#acb6c4"/>
          <path d="m29.981,36.707c.324.495.876.793,1.468.793h.679c.87,0,1.393-.966.916-1.694l-1.169-1.785c-.761.687-1.61,1.261-2.554,1.677l.66,1.009Z" fill="#acb6c4"/>
          <path d="m36.927,21.551c-.031-.005-.064-.006-.096-.008-.017,0-.033-.004-.05-.004h-7.523c-.844-.03-1.669-.068-2.484-.111-1.999-.106-3.912-.248-5.73-.415-.436-.04-.864-.082-1.29-.125-1.978-.198-3.845-.421-5.584-.651-.865-.115-1.691-.23-2.495-.346-.979-.141-1.912-.279-2.799-.413-1.121-.169-2.174-.331-3.142-.474-.756-.112-1.467-.214-2.127-.301-.085-.011-.168-.011-.248-.003-.045-.004-.09-.006-.136-.006-.854,0-1.546.692-1.546,1.546s.685,1.539,1.533,1.546c2.284,5.473,3.393,7.723,5.381,10.505.421.589.979,1.127,1.672,1.609.753.524,1.676.977,2.765,1.356,3.062,1.067,7.472,1.528,13.423,1.155,1.045-.065,1.992-.327,2.867-.713.944-.417,1.793-.99,2.554-1.677,2.85-2.571,4.485-6.649,5.32-9.444.649-.183,1.125-.78,1.125-1.487,0-.802-.611-1.461-1.393-1.538Z" fill="#abb7c7"/>
          <path d="m12.277,15.797c.17-.065.208-.375.087-.693-.122-.318-.358-.523-.527-.458-.17.065-.209.375-.087.693.122.318.358.523.527.458Z"/>
        </g>
      </g>
    </g>
    <!-- Connector -->
    <line id="ITEM_5_CONN" x1="920" y1="810.0" x2="670.0" y2="810.0" stroke="var(--accent-3)" stroke-width="2" stroke-dasharray="4 4" opacity="0.6" stroke-opacity="1.0"/>
    <circle cx="670.0" cy="810.0" r="5" fill="var(--accent-5)"/>
    <!-- Rigid text block -->
    <!-- _FRAME guarantees text wraps neatly within text_w -->
    <rect id="ITEM_5_TEXT_BG" x="32.0" y="719.0" width="636.0" height="207.0" rx="22" fill="var(--panel)" fill-opacity="0.94" stroke="var(--primary-text)" stroke-opacity="0.12" stroke-width="1.5"/>
    <rect x="32.0" y="719.0" width="636.0" height="207.0" rx="16" fill="url(#svgfa4dea3c-universal-surface-sheen)" opacity="0.76"/>
    <rect id="ITEM_5_HEAD_FRAME" x="50.0" y="735.0" width="600" height="45" fill="none"/>
    <text id="ITEM_5_HEAD" data-bg-id="ITEM_5_TEXT_BG" x="650.0" y="735.0" font-weight="bold" font-size="28" fill="var(--primary-text)" text-anchor="end" fill-opacity="1.0" style="font-size: 30px; font-family: Inter, Segoe UI, Kalam, Roboto, Helvetica, Arial, sans-serif; font-weight: 700; letter-spacing:-0.4px;" data-final-font-size="30">
      <tspan x="650.0" dy="30.75px">Stress Seeker</tspan>
    </text>
    <rect id="ITEM_5_BODY_FRAME" x="50.0" y="825.0" width="600" height="85" fill="none"/>
    <text id="ITEM_5_BODY" data-bg-id="ITEM_5_TEXT_BG" x="650.0" y="825.0" font-size="20" fill="var(--primary-text)" opacity="0.9" text-anchor="end" style="font-size: 26px; font-family: Inter, Segoe UI, Kalam, Roboto, Helvetica, Arial, sans-serif; font-weight: 400;" data-final-font-size="26">
      <tspan x="650.0" dy="31.82px">Buyer wants relaxation ritual</tspan>
    </text>
    <circle cx="960" cy="950.0" r="64" fill="url(#svgfa4dea3c-universal-icon-aura)" opacity="0.82"/>
    <g transform="translate(960, 950.0)">
      <circle id="ITEM_6_STROKE" cx="0" cy="0" r="37" fill="transparent" stroke="var(--accent-4)" stroke-width="3" stroke-opacity="1.0"/>
      <circle id="ITEM_6_BORDER" cx="0" cy="0" r="45" fill="transparent" stroke="var(--accent-4)" stroke-width="3" stroke-dasharray="6 4" stroke-opacity="1.0"/>
      <circle id="ITEM_6_PAD" cx="0.00" cy="0.00" r="40.00" fill="var(--icon-pad-bg)" stroke="var(--primary-text)" stroke-width="2" opacity="0.9"/>
      <circle id="ITEM_6_PAD_INNER" cx="0.00" cy="0.00" r="31.20" fill="var(--accent-4)" fill-opacity="0.22"/>
      <g id="ITEM_6_ICON" transform="translate(-25, -25)" data-icon-size="50" stroke-dasharray="6 4">
        <g transform="translate(-10.65714285714286,-11.492857142857144) scale(2.2285714285714286)">
          <path d="M6.44001 29.66L19.0773 17.0226L19 15L18 14L16 13.958L5.74001 24.21C4.43001 25.52 4.43001 27.65 5.74001 28.96L6.44001 29.66Z" fill="#9B9B9B"/>
          <path d="M13 15L12.95 17.03L25.58 29.66L26.22 29.03C27.53 27.72 27.52 25.47 26.2 24.15L15.98 13.93H14L13 15ZM17.05 17.03C17.05 17.621 16.5709 18.1 15.98 18.1C15.389 18.1 14.91 17.621 14.91 17.03C14.91 16.4391 15.389 15.96 15.98 15.96C16.5709 15.96 17.05 16.4391 17.05 17.03Z" fill="#D3D3D3"/>
          <path d="M15.02 9.53C15.02 10.52 14.78 11.48 14.37 12.32L15.99 13.94L12.96 17.04L11.29 15.39C10.45 15.8 9.5 16.04 8.5 16.04C4.9 16.04 2 13.12 2 9.52C2 5.92 4.9 3 8.5 3C12.1 3 15.02 5.92 15.02 9.53ZM5.48 9.52C5.48 11.19 6.84 12.55 8.51 12.55C10.18 12.55 11.54 11.2 11.54 9.52C11.54 7.85 10.18 6.49 8.51 6.49C6.84 6.49 5.48 7.85 5.48 9.52Z" fill="#F8312F"/>
          <path d="M20.71 15.39L19.067 17.017L15.9993 13.9493L17.63 12.31C17.22 11.47 16.98 10.52 16.98 9.52C16.98 5.92 19.9 3 23.5 3C27.1 3 30 5.92 30 9.52C30 13.12 27.1 16.04 23.5 16.04C22.51 16.04 21.55 15.8 20.71 15.39ZM20.46 9.52C20.46 11.2 21.82 12.55 23.49 12.55C25.16 12.55 26.52 11.19 26.52 9.52C26.52 7.85 25.16 6.49 23.49 6.49C21.82 6.49 20.46 7.85 20.46 9.52Z" fill="#F8312F"/>
        </g>
      </g>
    </g>
    <!-- Connector -->
    <line id="ITEM_6_CONN" x1="1000" y1="950.0" x2="1250.0" y2="950.0" stroke="var(--accent-4)" stroke-width="2" stroke-dasharray="4 4" opacity="0.6" stroke-opacity="1.0"/>
    <circle cx="1250.0" cy="950.0" r="5" fill="var(--accent-6)"/>
    <!-- Rigid text block -->
    <!-- _FRAME guarantees text wraps neatly within text_w -->
    <rect id="ITEM_6_TEXT_BG" x="1252.0" y="859.0" width="636.0" height="207.0" rx="22" fill="var(--panel)" fill-opacity="0.94" stroke="var(--primary-text)" stroke-opacity="0.12" stroke-width="1.5"/>
    <rect x="1252.0" y="859.0" width="636.0" height="207.0" rx="16" fill="url(#svgfa4dea3c-universal-surface-sheen)" opacity="0.76"/>
    <rect id="ITEM_6_HEAD_FRAME" x="1270.0" y="875.0" width="600" height="45" fill="none"/>
    <text id="ITEM_6_HEAD" data-bg-id="ITEM_6_TEXT_BG" x="1270.0" y="875.0" font-weight="bold" font-size="28" fill="var(--primary-text)" text-anchor="start" fill-opacity="1.0" style="font-size: 30px; font-family: Inter, Segoe UI, Kalam, Roboto, Helvetica, Arial, sans-serif; font-weight: 700; letter-spacing:-0.4px;" data-final-font-size="30">
      <tspan x="1270.0" dy="30.75px">Casual Crafter</tspan>
    </text>
    <rect id="ITEM_6_BODY_FRAME" x="1270.0" y="965.0" width="600" height="85" fill="none"/>
    <text id="ITEM_6_BODY" data-bg-id="ITEM_6_TEXT_BG" x="1270.0" y="965.0" font-size="20" fill="var(--primary-text)" opacity="0.9" text-anchor="start" style="font-size: 26px; font-family: Inter, Segoe UI, Kalam, Roboto, Helvetica, Arial, sans-serif; font-weight: 400;" data-final-font-size="26">
      <tspan x="1270.0" dy="31.82px">Hobbyist seeks creative activity</tspan>
    </text>
  </g>
</svg>
