<?xml version='1.0' encoding='utf-8'?>
<svg xmlns="http://www.w3.org/2000/svg" width="1920" height="1080" viewBox="0 0 1920 1080" data-theme="light">
  <style>
        @font-face {
            font-family: 'Inter';
            src: url('assets/fonts/Inter-Regular.ttf') format('truetype');
            font-weight: 400;
            font-style: normal;
            font-display: swap;
        }
        @font-face {
            font-family: 'Inter';
            src: url('assets/fonts/Inter-Bold.ttf') format('truetype');
            font-weight: 600;
            font-style: normal;
            font-display: swap;
        }
        @font-face {
            font-family: 'Inter';
            src: url('assets/fonts/Inter-Bold.ttf') format('truetype');
            font-weight: 800;
            font-style: normal;
            font-display: swap;
        }
        
:root {
    --background: #f8fafc;
    --panel: #ffffff;
    --primary-text: #0f172a;
    --muted-text: #64748b;
    --inverse-text: #ffffff;
    --border: #e2e8f0;
    --shadow-color: #000000;
    --icon-pad-bg: #1e293b;
    --art-glow: #0891b2;
    --art-glow-opacity: 0.10;
    --art-sheen: #ffffff;
    --art-sheen-opacity: 0.34;
    --art-shadow: #0f172a;
    --art-shadow-opacity: 0.14;
    --art-muted-line: #94a3b8;
    --art-panel-tint: #f1f5f9;
    --font-family: 'Inter', 'Segoe UI', 'Kalam', Roboto, Helvetica, Arial, sans-serif;
    --radius-xl: 16px;
    --font-family-headline: 'Inter', 'Segoe UI', 'Kalam', Roboto, Helvetica, Arial, sans-serif;
    --font-family-body: 'Inter', 'Segoe UI', 'Kalam', Roboto, Helvetica, Arial, sans-serif;
    --font-heading: 'Inter', 'Segoe UI', 'Kalam', Roboto, Helvetica, Arial, sans-serif;
    --font-body: 'Inter', 'Segoe UI', 'Kalam', Roboto, Helvetica, Arial, sans-serif;
    --font-size-h1: 56px;
    --font-size-h2: 40px;
    --font-size-h3: 28px;
    --font-size-body: 24px;
    --font-size-caption: 18px;
    --secondary-text: var(--muted-text);
    --panel-border: var(--border);
    --font-weight-normal: 400;
    --font-weight-medium: 500;
    --font-weight-semibold: 600;
    --font-weight-bold: 700;
    --spacing-gutter-pct: 0.07;
    --spacing-top-pct: 0.15;
    --spacing-bottom-pct: 0.07;
    --spacing-title-y-pct: 0.055;
    --accent-1: #4f46e5;
    --accent-2: #059669;
    --accent-3: #db2777;
    --accent-4: #d97706;
    --accent-5: #0284c7;
    --accent-6: #7c3aed;
    --accent-7: #dc2626;
    --accent-8: #0d9488;
    --accent-9: #ea580c;
    --accent-10: #c026d3;
}
:root[data-theme="dark"] {
    --background: #0f172a;
    --panel: #1e293b;
    --primary-text: #f1f5f9;
    --muted-text: #94a3b8;
    --inverse-text: #0f172a;
    --border: #334155;
    --shadow-color: #000000;
    --icon-pad-bg: #1e293b;
    --art-glow: #7dd3fc;
    --art-glow-opacity: 0.18;
    --art-sheen: #ffffff;
    --art-sheen-opacity: 0.18;
    --art-shadow: #000000;
    --art-shadow-opacity: 0.28;
    --art-muted-line: #64748b;
    --art-panel-tint: #1e293b;
    --accent-1: #a5b4fc;
    --accent-2: #34d399;
    --accent-3: #f472b6;
    --accent-4: #fbbf24;
    --accent-5: #38bdf8;
    --accent-6: #c084fc;
    --accent-7: #f87171;
    --accent-8: #2dd4bf;
    --accent-9: #fb923c;
    --accent-10: #e879f9;
}
:root[data-theme="light"] {
    --background: #f8fafc;
    --panel: #ffffff;
    --primary-text: #0f172a;
    --muted-text: #64748b;
    --inverse-text: #ffffff;
    --border: #e2e8f0;
    --shadow-color: #000000;
    --icon-pad-bg: #1e293b;
    --art-glow: #0891b2;
    --art-glow-opacity: 0.10;
    --art-sheen: #ffffff;
    --art-sheen-opacity: 0.34;
    --art-shadow: #0f172a;
    --art-shadow-opacity: 0.14;
    --art-muted-line: #94a3b8;
    --art-panel-tint: #f1f5f9;
    --accent-1: #4f46e5;
    --accent-2: #059669;
    --accent-3: #db2777;
    --accent-4: #d97706;
    --accent-5: #0284c7;
    --accent-6: #7c3aed;
    --accent-7: #dc2626;
    --accent-8: #0d9488;
    --accent-9: #ea580c;
    --accent-10: #c026d3;
}</style>
  <rect x="0" y="0" width="1.92E+3" height="1.08E+3" fill="#252a34" stroke="none" id="programmatic_background"/>
  <line id="HEADER_DECOR" x1="960.0" x2="1080.0" y1="135.0" y2="135.0" stroke="var(--accent-1)" stroke-width="6" stroke-linecap="round"/>
  <defs>
    <pattern id="svg0c8e4968-napkin-hatch" patternUnits="userSpaceOnUse" width="12" height="12">
      <path d="M -3 12 L 12 -3 M 0 15 L 15 0" fill="none" stroke="var(--primary-text)" stroke-width="1" stroke-opacity="0.035"/>
    </pattern>
    <filter id="svg0c8e4968-soft-shadow" x="-30%" y="-30%" width="160%" height="160%">
      <feDropShadow dx="0" dy="3" stdDeviation="6" flood-color="#000000" flood-opacity="0.16"/>
    </filter>
    <radialGradient id="svg0c8e4968-universal-edge-vignette" cx="50%" cy="50%" r="72%">
      <stop offset="0%" stop-color="var(--background)" stop-opacity="0"/>
      <stop offset="72%" stop-color="var(--background)" stop-opacity="0.12"/>
      <stop offset="100%" stop-color="var(--primary-text)" stop-opacity="0.08"/>
    </radialGradient>
    <linearGradient id="svg0c8e4968-universal-surface-sheen" x1="0%" y1="0%" x2="100%" y2="100%">
      <stop offset="0%" stop-color="var(--art-sheen)" stop-opacity="var(--art-sheen-opacity)"/>
      <stop offset="46%" stop-color="var(--art-sheen)" stop-opacity="0.035"/>
      <stop offset="100%" stop-color="var(--art-panel-tint)" stop-opacity="0.14"/>
    </linearGradient>
    <radialGradient id="svg0c8e4968-universal-icon-aura" cx="50%" cy="42%" r="64%">
      <stop offset="0%" stop-color="var(--art-glow)" stop-opacity="var(--art-glow-opacity)"/>
      <stop offset="100%" stop-color="var(--background)" stop-opacity="0"/>
    </radialGradient>
    <filter id="svg0c8e4968-text-glow" x="-20%" y="-20%" width="140%" height="140%">
      <feDropShadow dx="0" dy="0" stdDeviation="2" flood-color="#000000" flood-opacity="0.4"/>
    </filter>
    <filter id="svg0c8e4968-shadow" x="-30%" y="-30%" width="160%" height="160%">
      <feDropShadow dx="0" dy="2" stdDeviation="3" flood-color="#000000" flood-opacity="0.08"/>
      <feDropShadow dx="0" dy="6" stdDeviation="10" flood-color="#000000" flood-opacity="0.12"/>
    </filter>
    <marker id="svg0c8e4968-arrowhead" markerWidth="10" markerHeight="7" refX="9" refY="3.5" orient="auto" markerUnits="strokeWidth">
      <polygon points="0 0, 10 3.5, 0 7" fill="var(--muted-text)" opacity="0.6"/>
    </marker>
  </defs>
  <rect id="CANVAS_BG" width="100%" height="100%" fill="var(--background)"/>
  <rect width="100%" height="100%" fill="url(#svg0c8e4968-napkin-hatch)"/>
  <rect id="UNIVERSAL_EDGE_VIGNETTE" width="100%" height="100%" fill="url(#svg0c8e4968-universal-edge-vignette)" opacity="0.62"/>
  <text id="TITLE" x="960.0" y="59" text-anchor="middle" font-size="56" font-weight="800" fill="#0f172a" style="font-size: 60px; font-family: Inter, Segoe UI, Kalam, Roboto, Helvetica, Arial, sans-serif; font-weight: 700; letter-spacing:-1.2px;" data-final-font-size="60">
    <tspan x="960.0" dy="68.00px">BrickLink Reveals Hidden Demand</tspan>
  </text>
  <rect id="TITLE_FRAME" x="134" y="59" width="1652" height="103" fill="none"/>
  <rect x="120" y="205" width="1680" height="500" rx="40" fill="var(--panel)" fill-opacity="0.10" stroke="var(--muted-text)" stroke-width="1.5" opacity="0.68"/>
  <line x1="520.0" y1="468.0" x2="560.0" y2="468.0" stroke="var(--muted-text)" stroke-width="1.5" stroke-dasharray="8 9" opacity="0.42" stroke-linecap="round"/>
  <circle cx="540.0" cy="468.0" r="22" fill="var(--panel)" fill-opacity="0.86" stroke="var(--muted-text)" stroke-width="1.5" opacity="0.82"/>
  <text x="540.0" y="476.0" text-anchor="middle" font-size="22" font-weight="800" fill="var(--muted-text)" opacity="0.72">VS</text>
  <line x1="940.0" y1="468.0" x2="980.0" y2="468.0" stroke="var(--muted-text)" stroke-width="1.5" stroke-dasharray="8 9" opacity="0.42" stroke-linecap="round"/>
  <circle cx="960.0" cy="468.0" r="22" fill="var(--panel)" fill-opacity="0.86" stroke="var(--muted-text)" stroke-width="1.5" opacity="0.82"/>
  <text x="960.0" y="476.0" text-anchor="middle" font-size="22" font-weight="800" fill="var(--muted-text)" opacity="0.72">VS</text>
  <line x1="1360.0" y1="468.0" x2="1400.0" y2="468.0" stroke="var(--muted-text)" stroke-width="1.5" stroke-dasharray="8 9" opacity="0.42" stroke-linecap="round"/>
  <circle cx="1380.0" cy="468.0" r="22" fill="var(--panel)" fill-opacity="0.86" stroke="var(--muted-text)" stroke-width="1.5" opacity="0.82"/>
  <text x="1380.0" y="476.0" text-anchor="middle" font-size="22" font-weight="800" fill="var(--muted-text)" opacity="0.72">VS</text>
  <g transform="translate(322.5, 255.0)" filter="url(#svg0c8e4968-soft-shadow)">
    <rect id="ITEM_1_BG" x="-200.0" y="0" width="400.0" height="360" rx="28" fill="var(--panel)" fill-opacity="0.92" stroke="var(--accent-1)" stroke-width="2.5"/>
    <rect x="-200.0" y="0" width="400.0" height="360" rx="18" fill="url(#svg0c8e4968-universal-surface-sheen)" opacity="0.86"/>
    <rect x="-184.0" y="12" width="368.0" height="8" rx="4" fill="var(--accent-1)" fill-opacity="0.42"/>
    <circle id="ITEM_1_PAD" cx="0" cy="74" r="46" fill="var(--icon-pad-bg)" stroke="var(--primary-text)" opacity="0.9" fill-opacity="0.9" stroke-width="2"/>
    <circle id="ITEM_1_PAD_INNER" cx="0" cy="74" r="35.88" fill="var(--accent-2)" fill-opacity="0.22"/>
    <circle cx="0" cy="74" r="36" fill="none" stroke="var(--accent-1)" stroke-width="2.25" stroke-dasharray="4 4" opacity="0.8"/>
    <g id="ITEM_1_ICON" transform="translate(-34, 40)" data-icon-size="68" stroke-dasharray="4 4">
      <g transform="translate(-1.8800000000000026,-1.8800000000000026) scale(5.125714285714286)" vector-effect="non-scaling-stroke" stroke-width="2.53" stroke-linecap="round" stroke-linejoin="round" stroke-opacity="1.0">
        <path id="Vector" fill="none" d="M6 11.5a5.5 5.5 0 1 0 0 -11 5.5 5.5 0 0 0 0 11Z" vector-effect="non-scaling-stroke" stroke="#f1f5f9"/>
        <path id="Vector_2" stroke="#f1f5f9" d="M6 11.5a5.5 5.5 0 1 0 0 -11 5.5 5.5 0 0 0 0 11Z" vector-effect="non-scaling-stroke" fill="none"/>
        <path id="Vector_3" stroke="#f1f5f9" d="M13.5 13.5 10 10" vector-effect="non-scaling-stroke" fill="none"/>
      </g>
    </g>
    <text id="ITEM_1_HEAD" x="0.0" y="138.0" text-anchor="middle" font-size="44" font-weight="800" fill="var(--primary-text)" data-bg-id="ITEM_1_BG" fill-opacity="1.0" style="font-size: 30px; font-family: Inter, Segoe UI, Kalam, Roboto, Helvetica, Arial, sans-serif; font-weight: 700; letter-spacing:-0.4px;" data-final-font-size="30">
      <tspan x="0.0" dy="42.25px">Part Searches</tspan>
    </text>
    <rect id="ITEM_1_HEAD_FRAME" x="-166.0" y="138" width="332.0" height="68" fill="none"/>
    <text id="ITEM_1_BODY" x="0.0" y="206.0" text-anchor="middle" font-size="27" fill="var(--primary-text)" data-bg-id="ITEM_1_BG" style="font-size: 26px; font-family: Inter, Segoe UI, Kalam, Roboto, Helvetica, Arial, sans-serif; font-weight: 400;" data-final-font-size="26">
      <tspan x="0.0" dy="40.04px">Builders repeatedly search</tspan>
      <tspan x="0.0" dy="29.90px">for specific elements</tspan>
    </text>
    <rect id="ITEM_1_BODY_FRAME" x="-190.0" y="206" width="380" height="156" fill="none"/>
  </g>
  <g transform="translate(747.5, 255.0)" filter="url(#svg0c8e4968-soft-shadow)">
    <rect id="ITEM_2_BG" x="-200.0" y="0" width="400.0" height="360" rx="28" fill="var(--panel)" fill-opacity="0.92" stroke="var(--accent-2)" stroke-width="2.5"/>
    <rect x="-200.0" y="0" width="400.0" height="360" rx="18" fill="url(#svg0c8e4968-universal-surface-sheen)" opacity="0.86"/>
    <rect x="-184.0" y="12" width="368.0" height="8" rx="4" fill="var(--accent-2)" fill-opacity="0.42"/>
    <circle id="ITEM_2_PAD" cx="0" cy="74" r="46" fill="var(--icon-pad-bg)" stroke="var(--primary-text)" opacity="0.9" fill-opacity="0.9" stroke-width="2"/>
    <circle id="ITEM_2_PAD_INNER" cx="0" cy="74" r="35.88" fill="var(--accent-3)" fill-opacity="0.22"/>
    <circle cx="0" cy="74" r="36" fill="none" stroke="var(--accent-2)" stroke-width="2.25" stroke-dasharray="4 4" opacity="0.8"/>
    <g id="ITEM_2_ICON" transform="translate(-34, 40)" data-icon-size="68" stroke-dasharray="4 4">
      <g transform="translate(-4.272000000000003,-4.272000000000002) scale(0.14950000000000002)" vector-effect="non-scaling-stroke" fill="#f1f5f9" fill-opacity="1.0" stroke="none">
        <path fill="#f1f5f9" d="M303.297 42.269q-2.31.037-4.476.158c-11.55.649-19.422 3.475-22.47 6.438L18.923 299.087L184.807 469.75l257.43-250.222c3.047-2.963 6.096-10.75 7.072-22.278s.207-26.288-1.645-42.248c-1.605-13.84-3.991-28.476-6.597-42.96c-12.99 9.51-28.1 16.583-48.25 20.222a40 40 0 0 1-11.38 36.191a40 40 0 0 1-56.562-.802a40 40 0 0 1 .803-56.563a40 40 0 0 1 29.031-11.3a40 40 0 0 1 27.532 12.103a40 40 0 0 1 2.998 3.5c24.115-3.229 38.245-11.132 52.109-23.326c-1.891-9.87-3.776-19.475-5.47-28.424c-27.556-6.032-61.042-14.049-90.872-18.371c-11.925-1.728-23.195-2.83-32.957-2.998q-2.441-.042-4.752-.004zm159.469 34.836c-3.39.175-6.773 1.444-9.342 3.283a2734 2734 0 0 1 3.7 19.365l5.326-3.707c.268.372.45.517.765 1.106c2.648 4.937 5.797 16.02 7.912 30.437c4.231 28.833 5.344 71.6 1.848 116.16s-11.623 91.069-25.262 127.625c-13.639 36.557-32.614 61.986-55.453 68.49c-8.264 2.354-12.21.983-16.803-3.57c-4.593-4.552-9.035-13.679-12.054-26.199c-5.115-21.207-6.457-51.417-5.526-83.469l-18.336 17.824c-.067 25.974 1.633 50.248 6.364 69.864c3.443 14.277 8.383 26.341 16.882 34.765s21.359 11.814 34.405 8.098c31.734-9.038 52.827-40.494 67.384-79.512s22.756-86.771 26.344-132.508c3.589-45.736 2.547-89.302-1.984-120.181c-2.266-15.44-5.15-27.556-9.858-36.332c-2.353-4.388-5.217-8.459-10.513-10.627c-1.324-.542-2.736-.832-4.174-.91q-.81-.044-1.625-.002M293.1 187.796l12.549 12.906l-29.38 28.563c6.195 6.952 11.437 14.253 15.71 21.908c5.1 9.1 8.755 18.47 10.96 28.12l-16.91 16.212q-1.421-16.44-7.652-30.496t-17.27-25.57q-21.758-22.696-44.751-22.59q-22.914.189-46.744 23.035q-23.752 22.772-24.907 45.656q-1.074 22.969 20.684 45.664q8.498 8.864 16.584 14.463q8.164 5.526 16.553 8.135l31.539-30.236l-26.205-27.336l13.054-12.516l42.09 43.9l-50.416 48.335q-15.82-3.435-30.398-11.872c-8.672-5.09-16.86-11.463-24.569-19.097l-25.826 24.635l-12.424-13.026l26.303-25.088c-12.28-16.036-18.338-32.69-18.164-49.963q.48-31.775 29.188-59.298q27.885-26.735 58.498-26.692q.987.002 1.976.031c17.69.524 34.44 7.564 50.254 21.069z" vector-effect="non-scaling-stroke" stroke="none"/>
      </g>
    </g>
    <text id="ITEM_2_HEAD" x="0.0" y="138.0" text-anchor="middle" font-size="44" font-weight="800" fill="var(--accent-3)" data-bg-id="ITEM_2_BG" fill-opacity="1.0" style="font-size: 30px; font-family: Inter, Segoe UI, Kalam, Roboto, Helvetica, Arial, sans-serif; font-weight: 700; letter-spacing:-0.4px;" data-final-font-size="30">
      <tspan x="0.0" dy="42.25px">Colour Prices</tspan>
    </text>
    <rect id="ITEM_2_HEAD_FRAME" x="-166.0" y="138" width="332.0" height="68" fill="none"/>
    <text id="ITEM_2_BODY" x="0.0" y="206.0" text-anchor="middle" font-size="27" fill="var(--primary-text)" data-bg-id="ITEM_2_BG" style="font-size: 26px; font-family: Inter, Segoe UI, Kalam, Roboto, Helvetica, Arial, sans-serif; font-weight: 400;" data-final-font-size="26">
      <tspan x="0.0" dy="40.04px">Certain shades command premium</tspan>
      <tspan x="0.0" dy="29.90px">resale prices</tspan>
    </text>
    <rect id="ITEM_2_BODY_FRAME" x="-190.0" y="206" width="380" height="156" fill="none"/>
  </g>
  <g transform="translate(1172.5, 255.0)" filter="url(#svg0c8e4968-soft-shadow)">
    <rect id="ITEM_3_BG" x="-200.0" y="0" width="400.0" height="360" rx="28" fill="var(--panel)" fill-opacity="0.92" stroke="var(--accent-3)" stroke-width="2.5"/>
    <rect x="-200.0" y="0" width="400.0" height="360" rx="18" fill="url(#svg0c8e4968-universal-surface-sheen)" opacity="0.86"/>
    <rect x="-184.0" y="12" width="368.0" height="8" rx="4" fill="var(--accent-3)" fill-opacity="0.42"/>
    <circle id="ITEM_3_PAD" cx="0" cy="74" r="46" fill="var(--icon-pad-bg)" stroke="var(--primary-text)" opacity="0.9" fill-opacity="0.9" stroke-width="2"/>
    <circle id="ITEM_3_PAD_INNER" cx="0" cy="74" r="35.88" fill="var(--accent-4)" fill-opacity="0.22"/>
    <circle cx="0" cy="74" r="36" fill="none" stroke="var(--accent-3)" stroke-width="2.25" stroke-dasharray="4 4" opacity="0.8"/>
    <g id="ITEM_3_ICON" transform="translate(-34, 40)" data-icon-size="68" stroke-dasharray="4 4">
      <g transform="translate(-4.272000000000003,-4.272000000000003) scale(0.14950000000000002)" vector-effect="non-scaling-stroke" fill="#f1f5f9" fill-opacity="1.0" stroke="none">
        <path fill="#f1f5f9" d="M16.375 17.22v94.28l20.47 14.25l6.374-32.063l50.468 33.22L71.844 37.03l29.53 14.032L91.22 17.22H16.374zm119.72 0l19.843 42.03l-42.032 46.72H155l4.656 39.718L180.686 120l10.408 61.938l38.75-56.72l25.22 32.657l24.186-91.156l33.78 21.124l.595-50.78l47.656 24.436l-3.03 67.5l28.438-41.813l12.78 22.126l60.157-64.25l1.188 44.187l33.875-42.625V17.22H136.094zM85.468 186.03c-16.63.038-34.107 1.616-52.345 4.376l-7.906 1.188l-.064 7.97c-.35 40.24 4.84 67.31 16.125 85.936c11.287 18.627 29.17 27.313 48.626 29.938c6.937.935 14.17 1.266 21.656 1.218v-92.47c-18.67 4.285-32.593 20.996-32.593 40.97c0 12.76 5.68 24.195 14.655 31.906a78 78 0 0 1-1.22-.156c-16.03-2.162-26.822-7.34-35.155-21.094c-7.72-12.74-12.852-34.287-13.313-67.968c14.533-1.918 28.44-3.073 41.47-3.094c25.72-.042 48.403 3.894 67.593 12.78c27.768 12.86 49.145 36.087 63.406 75.626c-23.567-1.313-45.838.293-65.906 1.97c7.748-7.628 12.563-18.238 12.563-29.97c0-20.04-14.044-36.785-32.813-41v91.75c29.98-2.004 63.35-7.024 98.438-3.187l13.968 1.53l-4-13.47c-15.143-51.256-42.066-83.663-77.812-100.217c-22.342-10.347-47.66-14.594-75.375-14.532zm347.624 0c-27.716-.06-53.034 4.186-75.375 14.532c-35.748 16.555-62.67 48.962-77.814 100.22l-3.97 13.468l13.94-1.53c35.57-3.89 69.386 1.335 99.687 3.28v-92.125c-19.397 3.735-34.063 20.795-34.063 41.28c0 11.726 4.822 22.344 12.563 29.97c-20.063-1.682-42.327-3.31-65.875-2c14.26-39.522 35.645-62.737 63.406-75.594c19.19-8.886 41.87-12.822 67.594-12.78c13.038.022 26.924 1.173 41.468 3.094c-.46 33.68-5.624 55.228-13.344 67.97c-8.333 13.753-19.093 18.93-35.125 21.092c-.41.056-.832.107-1.25.156c8.984-7.71 14.688-19.137 14.688-31.906c0-19.525-13.332-35.927-31.375-40.656v92.156c7.04.004 13.86-.335 20.406-1.22c19.458-2.623 37.37-11.31 48.656-29.936c11.287-18.627 16.443-45.695 16.094-85.938l-.062-7.968l-7.875-1.188c-18.24-2.76-35.747-4.338-52.376-4.375zm37.937 139.19l-2.717 35.124l-80.407-4.063l78.375 66.25l-39.874 9.44l68.28 27.03l.002-105.406l-23.657-28.375zm-131.124 12.03L274.5 422.53l-12.28-42.06l-29.19 96.936l-50.218-67.72l-14.593 85.845h257.53l-6.406-34.467l-53.156 19.875l-9.344-53.157l-16.938 13.44zm-300.78 15.188l-22.75 19.843v123.25h130.06l-16.186-76.5l-13.875 16.72l-24.688-54.125l-33.28 54.344l-19.282-83.533z" vector-effect="non-scaling-stroke" stroke="none"/>
      </g>
    </g>
    <text id="ITEM_3_HEAD" x="0.0" y="138.0" text-anchor="middle" font-size="44" font-weight="800" fill="var(--primary-text)" data-bg-id="ITEM_3_BG" fill-opacity="1.0" style="font-size: 30px; font-family: Inter, Segoe UI, Kalam, Roboto, Helvetica, Arial, sans-serif; font-weight: 700; letter-spacing:-0.4px;" data-final-font-size="30">
      <tspan x="0.0" dy="42.25px">Retired Sets</tspan>
    </text>
    <rect id="ITEM_3_HEAD_FRAME" x="-166.0" y="138" width="332.0" height="68" fill="none"/>
    <text id="ITEM_3_BODY" x="0.0" y="206.0" text-anchor="middle" font-size="27" fill="var(--primary-text)" data-bg-id="ITEM_3_BG" style="font-size: 26px; font-family: Inter, Segoe UI, Kalam, Roboto, Helvetica, Arial, sans-serif; font-weight: 400;" data-final-font-size="26">
      <tspan x="0.0" dy="40.04px">Old sets trade long after</tspan>
      <tspan x="0.0" dy="29.90px">production ends</tspan>
    </text>
    <rect id="ITEM_3_BODY_FRAME" x="-190.0" y="206" width="380" height="156" fill="none"/>
  </g>
  <g transform="translate(1597.5, 255.0)" filter="url(#svg0c8e4968-soft-shadow)">
    <rect id="ITEM_4_BG" x="-200.0" y="0" width="400.0" height="360" rx="28" fill="var(--panel)" fill-opacity="0.92" stroke="var(--accent-4)" stroke-width="2.5"/>
    <rect x="-200.0" y="0" width="400.0" height="360" rx="18" fill="url(#svg0c8e4968-universal-surface-sheen)" opacity="0.86"/>
    <rect x="-184.0" y="12" width="368.0" height="8" rx="4" fill="var(--accent-4)" fill-opacity="0.42"/>
    <circle id="ITEM_4_PAD" cx="0" cy="74" r="46" fill="var(--icon-pad-bg)" stroke="var(--primary-text)" opacity="0.9" fill-opacity="0.9" stroke-width="2"/>
    <circle id="ITEM_4_PAD_INNER" cx="0" cy="74" r="35.88" fill="var(--accent-5)" fill-opacity="0.22"/>
    <circle cx="0" cy="74" r="36" fill="none" stroke="var(--accent-4)" stroke-width="2.25" stroke-dasharray="4 4" opacity="0.8"/>
    <g id="ITEM_4_ICON" transform="translate(-34, 40)" data-icon-size="68" stroke-dasharray="4 4">
      <g transform="translate(-7.005714285714289,-4.442857142857147) scale(0.3203571428571429)" vector-effect="non-scaling-stroke" stroke-width="2.53" stroke-linecap="round" stroke-linejoin="round" stroke-opacity="1.0">
        <path d="M24,176V64A24,24,0,0,1,48,40H64V152H48a24,24,0,0,0,0,48H232V64H64" fill="none" stroke="#f1f5f9" vector-effect="non-scaling-stroke"/>
        <line x1="128" y1="96" x2="128" y2="160" fill="none" stroke="#f1f5f9" vector-effect="non-scaling-stroke"/>
        <line x1="168" y1="96" x2="168" y2="160" fill="none" stroke="#f1f5f9" vector-effect="non-scaling-stroke"/>
        <line x1="104" y1="112" x2="192" y2="112" fill="none" stroke="#f1f5f9" vector-effect="non-scaling-stroke"/>
        <line x1="104" y1="144" x2="192" y2="144" fill="none" stroke="#f1f5f9" vector-effect="non-scaling-stroke"/>
      </g>
    </g>
    <text id="ITEM_4_HEAD" x="0.0" y="138.0" text-anchor="middle" font-size="44" font-weight="800" fill="var(--primary-text)" data-bg-id="ITEM_4_BG" fill-opacity="1.0" style="font-size: 30px; font-family: Inter, Segoe UI, Kalam, Roboto, Helvetica, Arial, sans-serif; font-weight: 700; letter-spacing:-0.4px;" data-final-font-size="30">
      <tspan x="0.0" dy="42.25px">Building Styles</tspan>
    </text>
    <rect id="ITEM_4_HEAD_FRAME" x="-166.0" y="138" width="332.0" height="68" fill="none"/>
    <text id="ITEM_4_BODY" x="0.0" y="206.0" text-anchor="middle" font-size="27" fill="var(--primary-text)" data-bg-id="ITEM_4_BG" style="font-size: 26px; font-family: Inter, Segoe UI, Kalam, Roboto, Helvetica, Arial, sans-serif; font-weight: 400;" data-final-font-size="26">
      <tspan x="0.0" dy="40.04px">Specific techniques generate</tspan>
      <tspan x="0.0" dy="29.90px">sustained activity</tspan>
    </text>
    <rect id="ITEM_4_BODY_FRAME" x="-190.0" y="206" width="380" height="156" fill="none"/>
  </g>
</svg>
